<?xml version="1.0" encoding="UTF-8" standalone="no"?>
<!-- Created with Inkscape (http://www.inkscape.org/) -->

<svg
   xmlns:dc="http://purl.org/dc/elements/1.1/"
   xmlns:cc="http://creativecommons.org/ns#"
   xmlns:rdf="http://www.w3.org/1999/02/22-rdf-syntax-ns#"
   xmlns:svg="http://www.w3.org/2000/svg"
   xmlns="http://www.w3.org/2000/svg"
   xmlns:sodipodi="http://sodipodi.sourceforge.net/DTD/sodipodi-0.dtd"
   xmlns:inkscape="http://www.inkscape.org/namespaces/inkscape"
   width="100"
   height="100"
   id="svg3280"
   version="1.1"
   inkscape:version="0.48.1 r9760"
   sodipodi:docname="New document 6">
  <defs
     id="defs3282" />
  <sodipodi:namedview
     id="base"
     pagecolor="#ffffff"
     bordercolor="#666666"
     borderopacity="1.0"
     inkscape:pageopacity="0.0"
     inkscape:pageshadow="2"
     inkscape:zoom="0.98994949"
     inkscape:cx="-8.1511903"
     inkscape:cy="43.313593"
     inkscape:document-units="px"
     inkscape:current-layer="layer1"
     showgrid="false"
     inkscape:window-width="661"
     inkscape:window-height="548"
     inkscape:window-x="2039"
     inkscape:window-y="1249"
     inkscape:window-maximized="0" />
  <metadata
     id="metadata3285">
    <rdf:RDF>
      <cc:Work
         rdf:about="">
        <dc:format>image/svg+xml</dc:format>
        <dc:type
           rdf:resource="http://purl.org/dc/dcmitype/StillImage" />
        <dc:title></dc:title>
      </cc:Work>
    </rdf:RDF>
  </metadata>
  <g
     inkscape:label="Layer 1"
     inkscape:groupmode="layer"
     id="layer1"
     transform="translate(0,-952.36218)">
    <g
       style="fill:#d3d7cf;display:inline"
       id="g3513"
       transform="matrix(0.15211331,0,0,0.15911706,-4.5583017,935.96065)">
      <path
         style="color:#000000;fill:#d3d7cf;fill-opacity:1;fill-rule:nonzero;stroke:none;stroke-width:2;marker:none;visibility:visible;display:inline;overflow:visible;enable-background:accumulate"
         d="m 379.15625,290.375 c -0.28669,3.11462 -1.54764,5.94756 -3.46875,8.21875 1.96974,1.02652 3.3125,3.05722 3.3125,5.40625 0,3.38105 -2.78858,6.125 -6.21875,6.125 -1.20806,0 -2.32741,-0.34934 -3.28125,-0.9375 -1.07287,2.86273 -3.01498,5.32744 -5.5,7.0625 2.48141,1.73176 5.50948,2.75 8.78125,2.75 C 381.18589,319 388,312.28427 388,304 c 0,-6.04255 -3.62049,-11.24887 -8.84375,-13.625 z"
         transform="matrix(13.4709,0,0,13.6667,-4543.47,-3637.29)"
         id="path2996-8-8-7"
         inkscape:connector-curvature="0" />
      <path
         style="color:#000000;fill:#d3d7cf;fill-opacity:1;fill-rule:nonzero;stroke:none;stroke-width:2;marker:none;visibility:visible;display:inline;overflow:visible;enable-background:accumulate"
         d="m 364,274 c -8.40464,0 -15.21875,6.71573 -15.21875,15 0,0.46321 0.0208,0.9225 0.0625,1.375 1.93721,-0.88089 4.10157,-1.375 6.375,-1.375 0.88056,0 1.72302,0.1084 2.5625,0.25 -0.003,-0.0835 0,-0.16568 0,-0.25 0,-3.38105 2.78858,-6.125 6.21875,-6.125 3.43017,0 6.21875,2.74395 6.21875,6.125 0,0.0843 0.003,0.16651 0,0.25 0.83948,-0.1416 1.68194,-0.25 2.5625,-0.25 2.27343,0 4.43779,0.49411 6.375,1.375 0.0417,-0.4525 0.0625,-0.91179 0.0625,-1.375 0,-8.28427 -6.81411,-15 -15.21875,-15 z"
         transform="matrix(13.4709,0,0,13.6667,-4543.47,-3637.29)"
         id="path2996-4"
         inkscape:connector-curvature="0" />
      <path
         style="color:#000000;fill:#d3d7cf;fill-opacity:1;fill-rule:nonzero;stroke:none;stroke-width:2;marker:none;visibility:visible;display:inline;overflow:visible;enable-background:accumulate"
         d="M 348.84375,290.375 C 343.62049,292.75113 340,297.95745 340,304 c 0,8.28427 6.81411,15 15.21875,15 3.27177,0 6.29984,-1.01824 8.78125,-2.75 -2.49177,-1.73977 -4.39765,-4.22102 -5.46875,-7.09375 -0.95983,0.59899 -2.09243,0.96875 -3.3125,0.96875 C 351.78858,310.125 349,307.38105 349,304 c 0,-2.34795 1.34424,-4.37927 3.3125,-5.40625 -1.91783,-2.27005 -3.18235,-5.10727 -3.46875,-8.21875 z"
         transform="matrix(13.4709,0,0,13.6667,-4543.47,-3637.29)"
         id="path2996-8-8-8-6"
         inkscape:connector-curvature="0" />
      <path
         transform="matrix(0.338462,0,0,0.338462,358.203,406.563)"
         d="m 550,327.36218 a 195,195 0 1 1 -390,0 195,195 0 1 1 390,0 z"
         sodipodi:ry="195"
         sodipodi:rx="195"
         sodipodi:cy="327.36218"
         sodipodi:cx="355"
         id="path2996-8-8-1"
         style="color:#000000;fill:#d3d7cf;fill-opacity:1;fill-rule:nonzero;stroke:none;stroke-width:2;marker:none;visibility:visible;display:inline;overflow:visible;enable-background:accumulate"
         sodipodi:type="arc" />
      <path
         transform="matrix(0.338462,0,0,0.338462,239.846,201.563)"
         d="m 550,327.36218 a 195,195 0 1 1 -390,0 195,195 0 1 1 390,0 z"
         sodipodi:ry="195"
         sodipodi:rx="195"
         sodipodi:cy="327.36218"
         sodipodi:cx="355"
         id="path2996-8-8-1-5"
         style="color:#000000;fill:#d3d7cf;fill-opacity:1;fill-rule:nonzero;stroke:none;stroke-width:2;marker:none;visibility:visible;display:inline;overflow:visible;enable-background:accumulate"
         sodipodi:type="arc" />
      <path
         transform="matrix(0.338462,0,0,0.338462,121.489,406.563)"
         d="m 550,327.36218 a 195,195 0 1 1 -390,0 195,195 0 1 1 390,0 z"
         sodipodi:ry="195"
         sodipodi:rx="195"
         sodipodi:cy="327.36218"
         sodipodi:cx="355"
         id="path2996-8-8-1-5-7"
         style="color:#000000;fill:#d3d7cf;fill-opacity:1;fill-rule:nonzero;stroke:none;stroke-width:2;marker:none;visibility:visible;display:inline;overflow:visible;enable-background:accumulate"
         sodipodi:type="arc" />
    </g>
  </g>
</svg>
